<svg width="26" height="25" viewBox="0 0 26 25" fill="none" xmlns="http://www.w3.org/2000/svg">
<g id="formkit:add">
<path id="Vector" d="M13 23.4375C6.96875 23.4375 2.0625 18.5312 2.0625 12.5C2.0625 6.46875 6.96875 1.5625 13 1.5625C19.0312 1.5625 23.9375 6.46875 23.9375 12.5C23.9375 18.5312 19.0312 23.4375 13 23.4375ZM13 3.125C7.82813 3.125 3.625 7.32813 3.625 12.5C3.625 17.6719 7.82813 21.875 13 21.875C18.1719 21.875 22.375 17.6719 22.375 12.5C22.375 7.32813 18.1719 3.125 13 3.125Z" fill="black"/>
<path id="Vector_2" d="M13 17.9688C12.5625 17.9688 12.2188 17.625 12.2188 17.1875V7.8125C12.2188 7.375 12.5625 7.03125 13 7.03125C13.4375 7.03125 13.7812 7.375 13.7812 7.8125V17.1875C13.7812 17.625 13.4375 17.9688 13 17.9688Z" fill="black"/>
<path id="Vector_3" d="M17.6875 13.2812H8.3125C7.875 13.2812 7.53125 12.9375 7.53125 12.5C7.53125 12.0625 7.875 11.7188 8.3125 11.7188H17.6875C18.125 11.7188 18.4688 12.0625 18.4688 12.5C18.4688 12.9375 18.125 13.2812 17.6875 13.2812Z" fill="black"/>
</g>
</svg>
