<svg width="35" height="35" viewBox="0 0 35 35" fill="none" xmlns="http://www.w3.org/2000/svg">
<g id="healthicons:ui-user-profile">
<g id="Group">
<path id="Vector" d="M23.3333 14.5833C23.3333 16.1304 22.7187 17.6142 21.6247 18.7081C20.5308 19.8021 19.0471 20.4167 17.5 20.4167C15.9529 20.4167 14.4691 19.8021 13.3752 18.7081C12.2812 17.6142 11.6666 16.1304 11.6666 14.5833C11.6666 13.0362 12.2812 11.5525 13.3752 10.4585C14.4691 9.36458 15.9529 8.75 17.5 8.75C19.0471 8.75 20.5308 9.36458 21.6247 10.4585C22.7187 11.5525 23.3333 13.0362 23.3333 14.5833Z" fill="black"/>
<path id="Vector_2" fill-rule="evenodd" clip-rule="evenodd" d="M16.905 32.0717C9.12694 31.7596 2.91663 25.3546 2.91663 17.5C2.91663 9.44565 9.44559 2.91669 17.5 2.91669C25.5543 2.91669 32.0833 9.44565 32.0833 17.5C32.0833 25.5544 25.5543 32.0834 17.5 32.0834C17.4334 32.0838 17.3668 32.0838 17.3002 32.0834C17.1682 32.0834 17.0362 32.079 16.905 32.0717ZM8.14183 26.7021C8.0328 26.389 7.99568 26.0553 8.03325 25.7259C8.07081 25.3965 8.18209 25.0797 8.35882 24.7992C8.53555 24.5186 8.77319 24.2815 9.05411 24.1054C9.33503 23.9292 9.65201 23.8187 9.98152 23.7818C15.6661 23.1525 19.3688 23.2094 25.0257 23.7949C25.3556 23.8293 25.6734 23.9385 25.9548 24.1142C26.2361 24.2899 26.4737 24.5276 26.6494 24.809C26.825 25.0904 26.9341 25.4082 26.9684 25.7381C27.0027 26.0681 26.9612 26.4015 26.8471 26.713C29.2716 24.2601 30.6293 20.9489 30.625 17.5C30.625 10.2514 24.7486 4.37502 17.5 4.37502C10.2513 4.37502 4.37496 10.2514 4.37496 17.5C4.37496 21.0846 5.81215 24.3338 8.14183 26.7021Z" fill="black"/>
</g>
</g>
</svg>
