<svg width="25" height="25" viewBox="0 0 25 25" fill="none" xmlns="http://www.w3.org/2000/svg">
<g id="teenyicons:tick-circle-outline" clip-path="url(#clip0_109_56)">
<path id="Vector" d="M6.66665 12.5L11.6666 16.6666L18.3333 8.33331M12.5 24.1666C10.9679 24.1666 9.45081 23.8649 8.03534 23.2786C6.61987 22.6923 5.33375 21.8329 4.2504 20.7496C3.16705 19.6662 2.30769 18.3801 1.72139 16.9646C1.13508 15.5492 0.833313 14.0321 0.833313 12.5C0.833313 10.9679 1.13508 9.45081 1.72139 8.03534C2.30769 6.61987 3.16705 5.33375 4.2504 4.2504C5.33375 3.16705 6.61987 2.30769 8.03534 1.72139C9.45081 1.13508 10.9679 0.833313 12.5 0.833313C15.5942 0.833313 18.5616 2.06248 20.7496 4.2504C22.9375 6.43833 24.1666 9.40579 24.1666 12.5C24.1666 15.5942 22.9375 18.5616 20.7496 20.7496C18.5616 22.9375 15.5942 24.1666 12.5 24.1666Z" stroke="black" stroke-width="2" stroke-linecap="round"/>
</g>
<defs>
<clipPath id="clip0_109_56">
<rect width="25" height="25" fill="white"/>
</clipPath>
</defs>
</svg>
